<svg width="20" height="18" viewBox="0 0 20 18" fill="none" xmlns="http://www.w3.org/2000/svg">
<path d="M1.1388 3.87535C0.833344 5.012 0.833344 6.58008 0.833344 9C0.833344 12.4373 0.833344 14.1559 1.70868 15.3607C1.99138 15.7498 2.33356 16.092 2.72266 16.3747C3.92746 17.25 5.64609 17.25 9.08334 17.25H10.9167C14.3539 17.25 16.0726 17.25 17.2774 16.3747C17.6665 16.092 18.0086 15.7498 18.2913 15.3607C19.1667 14.1559 19.1667 12.4373 19.1667 9C19.1667 6.57201 19.1667 5.00156 18.8582 3.864L16.9306 5.79154C15.4344 7.2878 14.2618 8.46038 13.2239 9.25227C12.1616 10.0628 11.1599 10.539 9.99988 10.539C8.83989 10.539 7.83821 10.0628 6.77586 9.25227C5.73795 8.46038 4.56538 7.28779 3.06913 5.79152L1.27688 3.99927L1.1388 3.87535Z" fill="white"/>
<path d="M1.75001 2.58333L1.84978 2.6659L2.22289 3.00074L4.00421 4.78206C5.54573 6.32358 6.654 7.42978 7.60991 8.15911C8.54995 8.87634 9.2614 9.16402 9.99988 9.16402C10.7384 9.16402 11.4498 8.87634 12.3899 8.15911C13.3458 7.42978 14.454 6.32358 15.9956 4.78206L18.1111 2.66648L18.2263 2.55197C17.9436 2.16287 17.6665 1.90804 17.2774 1.62534C16.0726 0.75 14.3539 0.75 10.9167 0.75H9.08334C5.64609 0.75 3.92746 0.75 2.72266 1.62534C2.33356 1.90804 2.03271 2.19423 1.75001 2.58333Z" fill="white"/>
</svg>
